<?xml version="1.0" encoding="UTF-8"?>
<svg xmlns="http://www.w3.org/2000/svg" xmlns:xlink="http://www.w3.org/1999/xlink" width="1920" height="1080" viewBox="0 0 1920 1080">
<defs>
<g>
<g id="glyph-0-0">
<path d="M 9.578125 -6.359375 C 9.871094 -6.03125 10.089844 -5.675781 10.230469 -5.289062 C 10.371094 -4.902344 10.4375 -4.449219 10.4375 -3.9375 C 10.4375 -2.710938 9.988281 -1.703125 9.082031 -0.90625 C 8.175781 -0.113281 7.054688 0.28125 5.710938 0.28125 C 5.09375 0.28125 4.476562 0.1875 3.859375 -0.00390625 C 3.238281 -0.195312 2.703125 -0.429688 2.257812 -0.703125 L 1.835938 0.0078125 L 1.054688 0.0078125 L 0.917969 -4.734375 L 1.710938 -4.734375 C 1.871094 -4.148438 2.0625 -3.621094 2.28125 -3.148438 C 2.5 -2.675781 2.785156 -2.234375 3.144531 -1.828125 C 3.484375 -1.441406 3.878906 -1.136719 4.332031 -0.90625 C 4.785156 -0.679688 5.308594 -0.566406 5.90625 -0.566406 C 6.359375 -0.566406 6.75 -0.625 7.085938 -0.742188 C 7.421875 -0.859375 7.691406 -1.027344 7.898438 -1.242188 C 8.109375 -1.457031 8.261719 -1.707031 8.363281 -2 C 8.464844 -2.289062 8.515625 -2.625 8.515625 -3 C 8.515625 -3.554688 8.359375 -4.070312 8.046875 -4.550781 C 7.734375 -5.03125 7.269531 -5.394531 6.648438 -5.640625 C 6.226562 -5.808594 5.742188 -5.996094 5.195312 -6.199219 C 4.648438 -6.40625 4.175781 -6.597656 3.78125 -6.78125 C 3 -7.132812 2.390625 -7.589844 1.957031 -8.160156 C 1.523438 -8.730469 1.308594 -9.472656 1.308594 -10.390625 C 1.308594 -10.917969 1.414062 -11.410156 1.632812 -11.867188 C 1.84375 -12.320312 2.152344 -12.726562 2.546875 -13.085938 C 2.925781 -13.425781 3.371094 -13.691406 3.886719 -13.882812 C 4.402344 -14.074219 4.9375 -14.171875 5.5 -14.171875 C 6.136719 -14.171875 6.707031 -14.070312 7.210938 -13.875 C 7.714844 -13.679688 8.175781 -13.453125 8.59375 -13.195312 L 8.992188 -13.859375 L 9.773438 -13.859375 L 9.851562 -9.257812 L 9.0625 -9.257812 C 8.917969 -9.785156 8.757812 -10.289062 8.578125 -10.773438 C 8.398438 -11.253906 8.167969 -11.6875 7.882812 -12.078125 C 7.601562 -12.457031 7.257812 -12.757812 6.855469 -12.984375 C 6.453125 -13.207031 5.957031 -13.320312 5.371094 -13.320312 C 4.753906 -13.320312 4.226562 -13.121094 3.789062 -12.726562 C 3.351562 -12.328125 3.132812 -11.84375 3.132812 -11.269531 C 3.132812 -10.671875 3.273438 -10.175781 3.554688 -9.78125 C 3.835938 -9.386719 4.242188 -9.0625 4.773438 -8.808594 C 5.25 -8.582031 5.71875 -8.382812 6.175781 -8.21875 C 6.636719 -8.050781 7.078125 -7.875 7.507812 -7.6875 C 7.898438 -7.515625 8.277344 -7.324219 8.636719 -7.109375 C 9 -6.894531 9.3125 -6.644531 9.578125 -6.359375 Z "/>
</g>
<g id="glyph-0-1">
<path d="M 9.257812 -2.265625 C 8.855469 -1.496094 8.3125 -0.886719 7.636719 -0.429688 C 6.960938 0.0273438 6.179688 0.253906 5.304688 0.253906 C 4.527344 0.253906 3.847656 0.117188 3.265625 -0.15625 C 2.683594 -0.429688 2.203125 -0.800781 1.828125 -1.269531 C 1.449219 -1.738281 1.167969 -2.285156 0.980469 -2.910156 C 0.796875 -3.535156 0.703125 -4.195312 0.703125 -4.890625 C 0.703125 -5.515625 0.800781 -6.132812 1 -6.734375 C 1.199219 -7.335938 1.492188 -7.878906 1.875 -8.359375 C 2.246094 -8.820312 2.707031 -9.195312 3.257812 -9.476562 C 3.808594 -9.761719 4.421875 -9.902344 5.109375 -9.902344 C 5.8125 -9.902344 6.414062 -9.792969 6.914062 -9.570312 C 7.414062 -9.347656 7.820312 -9.046875 8.132812 -8.664062 C 8.433594 -8.296875 8.65625 -7.867188 8.804688 -7.375 C 8.949219 -6.878906 9.023438 -6.339844 9.023438 -5.761719 L 9.023438 -5.117188 L 2.648438 -5.117188 C 2.648438 -4.484375 2.707031 -3.910156 2.828125 -3.394531 C 2.949219 -2.878906 3.136719 -2.425781 3.398438 -2.035156 C 3.652344 -1.65625 3.984375 -1.355469 4.394531 -1.136719 C 4.804688 -0.917969 5.292969 -0.8125 5.859375 -0.8125 C 6.4375 -0.8125 6.9375 -0.945312 7.359375 -1.21875 C 7.777344 -1.488281 8.183594 -1.980469 8.574219 -2.6875 L 9.257812 -2.265625 M 7.101562 -5.9375 C 7.101562 -6.300781 7.070312 -6.691406 7.007812 -7.105469 C 6.945312 -7.519531 6.84375 -7.867188 6.710938 -8.148438 C 6.558594 -8.445312 6.355469 -8.691406 6.09375 -8.878906 C 5.832031 -9.066406 5.5 -9.160156 5.085938 -9.160156 C 4.40625 -9.160156 3.835938 -8.875 3.382812 -8.308594 C 2.929688 -7.742188 2.6875 -6.949219 2.648438 -5.9375 Z "/>
</g>
<g id="glyph-0-2">
<path d="M 17.179688 0 L 12.492188 0 L 12.492188 -0.644531 C 12.640625 -0.65625 12.792969 -0.671875 12.945312 -0.683594 C 13.097656 -0.695312 13.234375 -0.722656 13.351562 -0.761719 C 13.53125 -0.820312 13.667969 -0.921875 13.753906 -1.070312 C 13.84375 -1.214844 13.886719 -1.40625 13.886719 -1.640625 L 13.886719 -6.609375 C 13.886719 -7.289062 13.730469 -7.8125 13.421875 -8.179688 C 13.113281 -8.546875 12.726562 -8.730469 12.265625 -8.730469 C 11.945312 -8.730469 11.648438 -8.679688 11.367188 -8.585938 C 11.085938 -8.484375 10.828125 -8.347656 10.59375 -8.171875 C 10.40625 -8.03125 10.25 -7.875 10.121094 -7.710938 C 9.996094 -7.542969 9.898438 -7.40625 9.835938 -7.296875 L 9.835938 -1.738281 C 9.835938 -1.511719 9.875 -1.324219 9.953125 -1.175781 C 10.03125 -1.03125 10.164062 -0.917969 10.351562 -0.839844 C 10.5 -0.78125 10.636719 -0.738281 10.757812 -0.707031 C 10.878906 -0.679688 11.035156 -0.65625 11.230469 -0.644531 L 11.230469 0 L 6.640625 0 L 6.640625 -0.644531 C 6.789062 -0.65625 6.933594 -0.671875 7.074219 -0.683594 C 7.214844 -0.695312 7.34375 -0.722656 7.460938 -0.761719 C 7.644531 -0.820312 7.777344 -0.921875 7.867188 -1.070312 C 7.953125 -1.214844 7.996094 -1.40625 8 -1.640625 L 8 -6.609375 C 7.996094 -7.289062 7.84375 -7.8125 7.53125 -8.179688 C 7.222656 -8.546875 6.835938 -8.730469 6.371094 -8.730469 C 6.054688 -8.730469 5.753906 -8.679688 5.472656 -8.578125 C 5.191406 -8.476562 4.933594 -8.339844 4.699219 -8.164062 C 4.511719 -8.019531 4.351562 -7.859375 4.21875 -7.679688 C 4.089844 -7.5 3.992188 -7.367188 3.925781 -7.273438 L 3.925781 -1.757812 C 3.925781 -1.535156 3.972656 -1.351562 4.0625 -1.203125 C 4.152344 -1.050781 4.289062 -0.9375 4.472656 -0.859375 C 4.609375 -0.792969 4.75 -0.746094 4.890625 -0.710938 C 5.035156 -0.679688 5.195312 -0.65625 5.371094 -0.644531 L 5.371094 0 L 0.695312 0 L 0.695312 -0.644531 C 0.84375 -0.65625 0.996094 -0.671875 1.15625 -0.683594 C 1.316406 -0.695312 1.453125 -0.722656 1.570312 -0.761719 C 1.753906 -0.820312 1.890625 -0.921875 1.976562 -1.070312 C 2.066406 -1.214844 2.109375 -1.40625 2.109375 -1.640625 L 2.109375 -7.617188 C 2.109375 -7.828125 2.0625 -8.015625 1.96875 -8.179688 C 1.875 -8.34375 1.742188 -8.488281 1.570312 -8.605469 C 1.449219 -8.683594 1.296875 -8.746094 1.113281 -8.792969 C 0.929688 -8.84375 0.742188 -8.875 0.546875 -8.886719 L 0.546875 -9.53125 L 3.769531 -9.746094 L 3.90625 -9.609375 L 3.90625 -8.234375 L 3.976562 -8.234375 C 4.136719 -8.394531 4.335938 -8.585938 4.570312 -8.808594 C 4.804688 -9.03125 5.023438 -9.207031 5.226562 -9.34375 C 5.453125 -9.5 5.738281 -9.632812 6.078125 -9.734375 C 6.421875 -9.839844 6.789062 -9.890625 7.1875 -9.890625 C 7.8125 -9.890625 8.351562 -9.726562 8.796875 -9.390625 C 9.25 -9.054688 9.570312 -8.648438 9.765625 -8.171875 C 10 -8.402344 10.207031 -8.601562 10.382812 -8.773438 C 10.5625 -8.945312 10.800781 -9.132812 11.089844 -9.328125 C 11.339844 -9.496094 11.628906 -9.632812 11.964844 -9.734375 C 12.300781 -9.839844 12.671875 -9.890625 13.082031 -9.890625 C 13.894531 -9.890625 14.535156 -9.625 15.011719 -9.09375 C 15.484375 -8.558594 15.722656 -7.738281 15.722656 -6.632812 L 15.722656 -1.738281 C 15.722656 -1.511719 15.761719 -1.324219 15.839844 -1.175781 C 15.917969 -1.03125 16.050781 -0.917969 16.242188 -0.839844 C 16.390625 -0.78125 16.539062 -0.738281 16.683594 -0.707031 C 16.832031 -0.679688 16.996094 -0.65625 17.179688 -0.644531 Z "/>
</g>
<g id="glyph-0-3">
<path d="M 9.824219 -0.175781 C 9.519531 -0.0664062 9.25 0.0234375 9.019531 0.09375 C 8.789062 0.160156 8.523438 0.195312 8.234375 0.195312 C 7.726562 0.195312 7.320312 0.078125 7.015625 -0.160156 C 6.714844 -0.398438 6.519531 -0.746094 6.4375 -1.203125 L 6.375 -1.203125 C 5.953125 -0.734375 5.5 -0.375 5.015625 -0.125 C 4.53125 0.121094 3.945312 0.242188 3.261719 0.242188 C 2.539062 0.242188 1.945312 0.0234375 1.480469 -0.421875 C 1.015625 -0.863281 0.78125 -1.441406 0.78125 -2.15625 C 0.78125 -2.53125 0.832031 -2.859375 0.9375 -3.15625 C 1.042969 -3.445312 1.199219 -3.710938 1.40625 -3.945312 C 1.570312 -4.140625 1.785156 -4.316406 2.050781 -4.46875 C 2.316406 -4.621094 2.570312 -4.742188 2.804688 -4.835938 C 3.09375 -4.945312 3.691406 -5.148438 4.585938 -5.449219 C 5.480469 -5.75 6.085938 -5.984375 6.398438 -6.152344 L 6.398438 -7.117188 C 6.398438 -7.203125 6.378906 -7.367188 6.34375 -7.609375 C 6.308594 -7.847656 6.230469 -8.074219 6.113281 -8.289062 C 5.984375 -8.53125 5.800781 -8.742188 5.5625 -8.921875 C 5.324219 -9.101562 4.988281 -9.1875 4.550781 -9.1875 C 4.25 -9.1875 3.972656 -9.140625 3.714844 -9.039062 C 3.457031 -8.9375 3.277344 -8.832031 3.171875 -8.71875 C 3.171875 -8.589844 3.203125 -8.398438 3.265625 -8.144531 C 3.328125 -7.890625 3.359375 -7.65625 3.359375 -7.441406 C 3.359375 -7.214844 3.257812 -7.003906 3.050781 -6.816406 C 2.847656 -6.628906 2.5625 -6.53125 2.195312 -6.53125 C 1.871094 -6.53125 1.632812 -6.648438 1.480469 -6.878906 C 1.328125 -7.109375 1.25 -7.371094 1.25 -7.65625 C 1.25 -7.957031 1.355469 -8.242188 1.566406 -8.515625 C 1.777344 -8.789062 2.054688 -9.03125 2.390625 -9.25 C 2.6875 -9.429688 3.039062 -9.585938 3.457031 -9.710938 C 3.875 -9.839844 4.28125 -9.902344 4.679688 -9.902344 C 5.226562 -9.902344 5.703125 -9.863281 6.109375 -9.789062 C 6.515625 -9.714844 6.882812 -9.554688 7.21875 -9.304688 C 7.546875 -9.066406 7.800781 -8.738281 7.972656 -8.324219 C 8.144531 -7.910156 8.230469 -7.378906 8.234375 -6.726562 C 8.230469 -5.796875 8.222656 -4.972656 8.203125 -4.253906 C 8.183594 -3.535156 8.171875 -2.746094 8.171875 -1.894531 C 8.171875 -1.640625 8.21875 -1.4375 8.304688 -1.289062 C 8.394531 -1.140625 8.527344 -1.011719 8.710938 -0.90625 C 8.808594 -0.851562 8.964844 -0.816406 9.175781 -0.8125 C 9.386719 -0.804688 9.601562 -0.800781 9.824219 -0.800781 L 9.824219 -0.175781 M 6.414062 -5.332031 C 5.863281 -5.167969 5.378906 -5.007812 4.960938 -4.851562 C 4.542969 -4.695312 4.15625 -4.5 3.796875 -4.265625 C 3.472656 -4.042969 3.214844 -3.78125 3.027344 -3.476562 C 2.839844 -3.175781 2.742188 -2.8125 2.742188 -2.394531 C 2.742188 -1.855469 2.886719 -1.457031 3.167969 -1.203125 C 3.453125 -0.949219 3.8125 -0.820312 4.25 -0.820312 C 4.710938 -0.820312 5.117188 -0.933594 5.46875 -1.15625 C 5.820312 -1.382812 6.117188 -1.648438 6.359375 -1.957031 Z "/>
</g>
<g id="glyph-0-4">
<path d="M 11.335938 0 L 6.632812 0 L 6.632812 -0.644531 C 6.78125 -0.65625 6.945312 -0.671875 7.125 -0.683594 C 7.304688 -0.695312 7.453125 -0.722656 7.570312 -0.761719 C 7.75 -0.820312 7.886719 -0.921875 7.972656 -1.070312 C 8.0625 -1.214844 8.105469 -1.40625 8.105469 -1.640625 L 8.105469 -6.59375 C 8.105469 -7.273438 7.945312 -7.800781 7.621094 -8.171875 C 7.296875 -8.542969 6.90625 -8.730469 6.441406 -8.730469 C 6.09375 -8.730469 5.777344 -8.675781 5.492188 -8.570312 C 5.203125 -8.460938 4.949219 -8.328125 4.726562 -8.171875 C 4.511719 -8.023438 4.339844 -7.863281 4.214844 -7.691406 C 4.085938 -7.519531 3.996094 -7.378906 3.9375 -7.273438 L 3.9375 -1.738281 C 3.9375 -1.515625 3.980469 -1.335938 4.070312 -1.191406 C 4.164062 -1.046875 4.300781 -0.9375 4.484375 -0.859375 C 4.617188 -0.792969 4.765625 -0.746094 4.925781 -0.710938 C 5.085938 -0.679688 5.25 -0.65625 5.421875 -0.644531 L 5.421875 0 L 0.703125 0 L 0.703125 -0.644531 C 0.851562 -0.65625 1.007812 -0.671875 1.167969 -0.683594 C 1.328125 -0.695312 1.464844 -0.722656 1.582031 -0.761719 C 1.765625 -0.820312 1.898438 -0.921875 1.988281 -1.070312 C 2.074219 -1.214844 2.117188 -1.40625 2.117188 -1.640625 L 2.117188 -7.578125 C 2.117188 -7.800781 2.070312 -8.003906 1.976562 -8.1875 C 1.882812 -8.375 1.75 -8.527344 1.582031 -8.644531 C 1.457031 -8.722656 1.3125 -8.777344 1.140625 -8.8125 C 0.972656 -8.847656 0.789062 -8.875 0.59375 -8.886719 L 0.59375 -9.53125 L 3.796875 -9.746094 L 3.9375 -9.609375 L 3.9375 -8.25 L 3.984375 -8.25 C 4.140625 -8.40625 4.335938 -8.59375 4.570312 -8.8125 C 4.804688 -9.03125 5.027344 -9.207031 5.234375 -9.34375 C 5.476562 -9.5 5.761719 -9.632812 6.09375 -9.734375 C 6.425781 -9.839844 6.800781 -9.890625 7.21875 -9.890625 C 8.140625 -9.890625 8.828125 -9.605469 9.273438 -9.027344 C 9.71875 -8.453125 9.941406 -7.6875 9.941406 -6.726562 L 9.941406 -1.71875 C 9.941406 -1.492188 9.980469 -1.308594 10.058594 -1.167969 C 10.136719 -1.027344 10.269531 -0.917969 10.460938 -0.839844 C 10.617188 -0.773438 10.75 -0.730469 10.863281 -0.703125 C 10.976562 -0.675781 11.136719 -0.65625 11.335938 -0.644531 Z "/>
</g>
<g id="glyph-0-5">
<path d="M 6.648438 -0.421875 C 6.226562 -0.242188 5.828125 -0.0976562 5.449219 0.0234375 C 5.070312 0.144531 4.609375 0.203125 4.0625 0.203125 C 3.253906 0.203125 2.6875 0 2.359375 -0.40625 C 2.03125 -0.8125 1.867188 -1.386719 1.867188 -2.128906 L 1.867188 -8.652344 L 0.125 -8.652344 L 0.125 -9.589844 L 1.90625 -9.589844 L 1.90625 -12.585938 L 3.679688 -12.585938 L 3.679688 -9.589844 L 6.445312 -9.589844 L 6.445312 -8.652344 L 3.703125 -8.652344 L 3.703125 -3.273438 C 3.703125 -2.867188 3.714844 -2.53125 3.746094 -2.261719 C 3.773438 -1.992188 3.84375 -1.753906 3.953125 -1.554688 C 4.058594 -1.363281 4.214844 -1.21875 4.421875 -1.125 C 4.632812 -1.023438 4.914062 -0.976562 5.265625 -0.976562 C 5.425781 -0.976562 5.664062 -0.992188 5.980469 -1.019531 C 6.296875 -1.050781 6.519531 -1.085938 6.648438 -1.132812 Z "/>
</g>
<g id="glyph-0-6">
<path d="M 5.371094 0 L 0.722656 0 L 0.722656 -0.644531 C 0.871094 -0.65625 1.027344 -0.671875 1.1875 -0.683594 C 1.347656 -0.695312 1.484375 -0.722656 1.601562 -0.761719 C 1.785156 -0.820312 1.917969 -0.921875 2.007812 -1.070312 C 2.09375 -1.214844 2.136719 -1.40625 2.140625 -1.640625 L 2.140625 -7.578125 C 2.136719 -7.789062 2.089844 -7.976562 1.996094 -8.148438 C 1.902344 -8.324219 1.769531 -8.46875 1.601562 -8.585938 C 1.476562 -8.664062 1.296875 -8.730469 1.0625 -8.785156 C 0.828125 -8.839844 0.617188 -8.875 0.421875 -8.886719 L 0.421875 -9.53125 L 3.820312 -9.746094 L 3.953125 -9.609375 L 3.953125 -1.757812 C 3.953125 -1.53125 4 -1.339844 4.085938 -1.191406 C 4.171875 -1.042969 4.3125 -0.929688 4.5 -0.859375 C 4.640625 -0.800781 4.78125 -0.753906 4.914062 -0.71875 C 5.050781 -0.683594 5.203125 -0.65625 5.371094 -0.644531 L 5.371094 0 M 4.148438 -13.546875 C 4.148438 -13.171875 4.027344 -12.851562 3.785156 -12.574219 C 3.539062 -12.296875 3.238281 -12.15625 2.882812 -12.15625 C 2.546875 -12.15625 2.261719 -12.289062 2.015625 -12.554688 C 1.773438 -12.816406 1.648438 -13.117188 1.648438 -13.457031 C 1.648438 -13.816406 1.773438 -14.128906 2.015625 -14.394531 C 2.261719 -14.660156 2.546875 -14.796875 2.882812 -14.796875 C 3.25 -14.796875 3.554688 -14.667969 3.792969 -14.417969 C 4.03125 -14.167969 4.148438 -13.875 4.148438 -13.546875 Z "/>
</g>
<g id="glyph-0-7">
<path d="M 5.15625 0.253906 C 3.761719 0.253906 2.671875 -0.207031 1.882812 -1.132812 C 1.097656 -2.058594 0.703125 -3.296875 0.703125 -4.851562 C 0.703125 -5.53125 0.808594 -6.164062 1.019531 -6.753906 C 1.230469 -7.34375 1.539062 -7.878906 1.945312 -8.359375 C 2.328125 -8.820312 2.808594 -9.195312 3.390625 -9.476562 C 3.96875 -9.761719 4.601562 -9.902344 5.28125 -9.902344 C 6.226562 -9.902344 6.996094 -9.675781 7.585938 -9.222656 C 8.179688 -8.769531 8.476562 -8.15625 8.476562 -7.375 C 8.476562 -7.046875 8.398438 -6.757812 8.242188 -6.507812 C 8.085938 -6.257812 7.828125 -6.132812 7.46875 -6.132812 C 7.085938 -6.132812 6.789062 -6.230469 6.578125 -6.425781 C 6.367188 -6.621094 6.257812 -6.835938 6.257812 -7.078125 C 6.257812 -7.367188 6.296875 -7.667969 6.375 -7.976562 C 6.453125 -8.285156 6.5 -8.511719 6.515625 -8.652344 C 6.398438 -8.855469 6.222656 -8.988281 5.992188 -9.058594 C 5.761719 -9.125 5.511719 -9.160156 5.246094 -9.160156 C 4.9375 -9.160156 4.636719 -9.09375 4.355469 -8.960938 C 4.074219 -8.828125 3.800781 -8.582031 3.53125 -8.222656 C 3.292969 -7.898438 3.097656 -7.457031 2.949219 -6.90625 C 2.800781 -6.351562 2.726562 -5.691406 2.726562 -4.921875 C 2.726562 -3.710938 2.992188 -2.722656 3.527344 -1.957031 C 4.066406 -1.191406 4.769531 -0.8125 5.640625 -0.8125 C 6.269531 -0.8125 6.796875 -0.964844 7.222656 -1.273438 C 7.648438 -1.578125 8.046875 -2.039062 8.410156 -2.65625 L 9.03125 -2.246094 C 8.601562 -1.476562 8.039062 -0.867188 7.335938 -0.421875 C 6.632812 0.0273438 5.90625 0.253906 5.15625 0.253906 Z "/>
</g>
<g id="glyph-0-8">
</g>
<g id="glyph-0-9">
<path d="M 12.226562 -10.097656 L 11.554688 -10.097656 C 11.492188 -10.332031 11.386719 -10.609375 11.234375 -10.933594 C 11.082031 -11.253906 10.910156 -11.558594 10.722656 -11.84375 C 10.523438 -12.144531 10.3125 -12.40625 10.078125 -12.632812 C 9.847656 -12.855469 9.625 -12.984375 9.410156 -13.015625 C 9.207031 -13.042969 8.953125 -13.0625 8.644531 -13.078125 C 8.339844 -13.089844 8.054688 -13.09375 7.792969 -13.09375 L 7.226562 -13.09375 L 7.226562 -2.011719 C 7.226562 -1.796875 7.273438 -1.601562 7.363281 -1.421875 C 7.453125 -1.242188 7.613281 -1.101562 7.84375 -1.007812 C 7.960938 -0.960938 8.203125 -0.898438 8.578125 -0.820312 C 8.953125 -0.742188 9.246094 -0.699219 9.453125 -0.695312 L 9.453125 0 L 2.910156 0 L 2.910156 -0.695312 C 3.09375 -0.707031 3.371094 -0.734375 3.746094 -0.773438 C 4.121094 -0.8125 4.378906 -0.859375 4.523438 -0.917969 C 4.734375 -1.003906 4.894531 -1.125 4.996094 -1.285156 C 5.097656 -1.445312 5.148438 -1.65625 5.148438 -1.921875 L 5.148438 -13.09375 L 4.578125 -13.09375 C 4.378906 -13.09375 4.128906 -13.089844 3.828125 -13.082031 C 3.527344 -13.070312 3.242188 -13.050781 2.96875 -13.015625 C 2.753906 -12.992188 2.53125 -12.863281 2.300781 -12.632812 C 2.070312 -12.402344 1.855469 -12.140625 1.660156 -11.84375 C 1.464844 -11.554688 1.292969 -11.242188 1.140625 -10.914062 C 0.992188 -10.585938 0.890625 -10.3125 0.828125 -10.097656 L 0.148438 -10.097656 L 0.148438 -13.859375 L 12.226562 -13.859375 Z "/>
</g>
<g id="glyph-0-10">
<path d="M 10.476562 -4.824219 C 10.476562 -3.378906 10.023438 -2.164062 9.109375 -1.179688 C 8.199219 -0.199219 7.140625 0.292969 5.9375 0.292969 C 5.410156 0.292969 4.890625 0.210938 4.378906 0.046875 C 3.867188 -0.113281 3.390625 -0.332031 2.9375 -0.605469 L 2.21875 0.515625 L 1.609375 0.378906 C 1.644531 -0.101562 1.667969 -0.679688 1.679688 -1.359375 C 1.691406 -2.035156 1.699219 -2.691406 1.699219 -3.324219 L 1.699219 -12.859375 C 1.699219 -13.082031 1.648438 -13.304688 1.546875 -13.523438 C 1.445312 -13.746094 1.320312 -13.90625 1.164062 -14.003906 C 1.039062 -14.089844 0.832031 -14.152344 0.542969 -14.195312 C 0.253906 -14.238281 0.0195312 -14.265625 -0.15625 -14.277344 L -0.15625 -14.902344 L 3.378906 -15.117188 L 3.515625 -14.96875 L 3.515625 -8.625 L 3.585938 -8.601562 C 3.988281 -9.03125 4.429688 -9.355469 4.90625 -9.570312 C 5.386719 -9.785156 5.855469 -9.890625 6.320312 -9.890625 C 7.503906 -9.890625 8.492188 -9.421875 9.289062 -8.484375 C 10.082031 -7.546875 10.476562 -6.328125 10.476562 -4.824219 M 8.4375 -4.757812 C 8.4375 -5.238281 8.386719 -5.730469 8.28125 -6.230469 C 8.175781 -6.730469 8.015625 -7.167969 7.792969 -7.539062 C 7.570312 -7.917969 7.28125 -8.222656 6.921875 -8.457031 C 6.566406 -8.691406 6.136719 -8.808594 5.632812 -8.808594 C 5.179688 -8.808594 4.78125 -8.71875 4.4375 -8.539062 C 4.097656 -8.359375 3.789062 -8.117188 3.515625 -7.8125 L 3.515625 -2.207031 C 3.554688 -2.050781 3.632812 -1.867188 3.746094 -1.660156 C 3.859375 -1.453125 4.015625 -1.253906 4.210938 -1.0625 C 4.40625 -0.882812 4.625 -0.734375 4.875 -0.621094 C 5.121094 -0.507812 5.421875 -0.449219 5.78125 -0.449219 C 6.574219 -0.449219 7.21875 -0.832031 7.703125 -1.601562 C 8.191406 -2.371094 8.4375 -3.421875 8.4375 -4.757812 Z "/>
</g>
<g id="glyph-0-11">
<path d="M 5.214844 0 L 0.515625 0 L 0.515625 -0.644531 C 0.667969 -0.65625 0.828125 -0.671875 0.996094 -0.6875 C 1.164062 -0.703125 1.304688 -0.730469 1.414062 -0.761719 C 1.597656 -0.820312 1.734375 -0.921875 1.828125 -1.070312 C 1.917969 -1.214844 1.960938 -1.40625 1.960938 -1.640625 L 1.960938 -12.800781 C 1.960938 -13.035156 1.914062 -13.257812 1.8125 -13.460938 C 1.710938 -13.667969 1.578125 -13.828125 1.414062 -13.945312 C 1.296875 -14.023438 1.085938 -14.09375 0.773438 -14.160156 C 0.460938 -14.226562 0.207031 -14.265625 0.0195312 -14.277344 L 0.0195312 -14.902344 L 3.640625 -15.117188 L 3.78125 -14.96875 L 3.78125 -1.757812 C 3.777344 -1.53125 3.820312 -1.34375 3.90625 -1.195312 C 3.992188 -1.050781 4.128906 -0.9375 4.316406 -0.859375 C 4.460938 -0.792969 4.601562 -0.746094 4.742188 -0.710938 C 4.882812 -0.679688 5.039062 -0.65625 5.214844 -0.644531 Z "/>
</g>
</g>
</defs>
<g fill="rgb(100%, 100%, 100%)" fill-opacity="1">
<use xlink:href="#glyph-0-0" x="30" y="38.339844"/>
<use xlink:href="#glyph-0-1" x="41" y="38.339844"/>
<use xlink:href="#glyph-0-2" x="51" y="38.339844"/>
<use xlink:href="#glyph-0-3" x="69" y="38.339844"/>
<use xlink:href="#glyph-0-4" x="79" y="38.339844"/>
<use xlink:href="#glyph-0-5" x="91" y="38.339844"/>
<use xlink:href="#glyph-0-6" x="98" y="38.339844"/>
<use xlink:href="#glyph-0-7" x="104" y="38.339844"/>
<use xlink:href="#glyph-0-8" x="113" y="38.339844"/>
<use xlink:href="#glyph-0-9" x="118" y="38.339844"/>
<use xlink:href="#glyph-0-3" x="130" y="38.339844"/>
<use xlink:href="#glyph-0-10" x="140" y="38.339844"/>
<use xlink:href="#glyph-0-11" x="151" y="38.339844"/>
<use xlink:href="#glyph-0-1" x="157" y="38.339844"/>
</g>
</svg>
